<?xml version="1.0" encoding="UTF-8" standalone="no"?>
<!-- Generator: Adobe Adobe Illustrator 24.2.0, SVG Export Plug-In . SVG Version: 6.00 Build 0)  -->

<svg
   xmlns:dc="http://purl.org/dc/elements/1.1/"
   xmlns:cc="http://creativecommons.org/ns#"
   xmlns:rdf="http://www.w3.org/1999/02/22-rdf-syntax-ns#"
   xmlns:svg="http://www.w3.org/2000/svg"
   xmlns="http://www.w3.org/2000/svg"
   xmlns:sodipodi="http://sodipodi.sourceforge.net/DTD/sodipodi-0.dtd"
   xmlns:inkscape="http://www.inkscape.org/namespaces/inkscape"
   version="1.1"
   id="Layer_1"
   x="0px"
   y="0px"
   width="2.1085621cm"
   height="1.1575cm"
   viewBox="0 -100 796.93639 437.4803"
   xml:space="preserve"
   sodipodi:docname="Payliko.svg"
   inkscape:version="0.92.5 (2060ec1f9f, 2020-04-08)"><metadata
   id="metadata39"><rdf:RDF><cc:Work
       rdf:about=""><dc:format>image/svg+xml</dc:format><dc:type
         rdf:resource="http://purl.org/dc/dcmitype/StillImage" /><dc:title></dc:title></cc:Work></rdf:RDF></metadata><defs
   id="defs37" /><sodipodi:namedview
   pagecolor="#ffffff"
   bordercolor="#666666"
   borderopacity="1"
   objecttolerance="10"
   gridtolerance="10"
   guidetolerance="10"
   inkscape:pageopacity="0"
   inkscape:pageshadow="2"
   inkscape:window-width="1680"
   inkscape:window-height="993"
   id="namedview35"
   showgrid="false"
   units="cm"
   inkscape:zoom="0.2140625"
   inkscape:cx="960"
   inkscape:cy="540"
   inkscape:window-x="0"
   inkscape:window-y="0"
   inkscape:window-maximized="1"
   inkscape:current-layer="Layer_1" />
<style
   type="text/css"
   id="style2">
	.st0{fill:#12449A;}
	.st1{fill:#00A0FF;}
	.st2{fill:#FFFFFF;}
	.st3{fill:none;}
</style>
<g
   id="g32"
   transform="translate(-567.16788,-315.51234)">
	<g
   id="g8">
		<path
   class="st0"
   d="m 735.04,654.94 -67.33,-67.33 c -37.18,-37.18 -37.18,-97.47 0,-134.66 v 0 c 37.18,-37.18 97.47,-37.18 134.66,0 v 0 c 37.18,37.18 37.18,97.47 0,134.66 z"
   id="path4"
   inkscape:connector-curvature="0"
   style="fill:#12449a" />
		<path
   class="st0"
   d="M 1165.24,654.94 H 735.04 V 425.06 h 430.21 c 63.48,0 114.94,51.46 114.94,114.94 v 0 c -0.01,63.48 -51.47,114.94 -114.95,114.94 z"
   id="path6"
   inkscape:connector-curvature="0"
   style="fill:#12449a" />
	</g>
	<g
   id="g22">
		<g
   id="g20">
			<path
   class="st1"
   d="m 927.55,511.63 c 0,-5.7 4.09,-9.92 9.79,-9.92 5.7,0 9.79,4.21 9.79,9.92 0,5.7 -4.09,9.79 -9.79,9.79 -5.7,0.01 -9.79,-4.09 -9.79,-9.79 z m 2.35,17.73 h 14.75 v 61.23 H 929.9 Z"
   id="path10"
   inkscape:connector-curvature="0"
   style="fill:#00a0ff" />
			<path
   class="st1"
   d="m 960.14,558.73 c 0,-20.45 12.15,-30.99 30.24,-30.99 18.09,0 30.24,10.41 30.24,30.99 v 31.85 h -14.75 v -31.85 c 0,-11.65 -6.2,-17.23 -15.49,-17.23 -9.29,0 -15.49,5.58 -15.49,17.23 v 31.85 h -14.75 z"
   id="path12"
   inkscape:connector-curvature="0"
   style="fill:#00a0ff" />
			<path
   class="st1"
   d="m 1034.02,558.73 c 0,-20.45 12.15,-30.99 30.24,-30.99 18.1,0 30.24,10.41 30.24,30.99 v 31.85 h -14.75 v -31.85 c 0,-11.65 -6.2,-17.23 -15.49,-17.23 -9.29,0 -15.49,5.58 -15.49,17.23 v 31.85 h -14.75 z"
   id="path14"
   inkscape:connector-curvature="0"
   style="fill:#00a0ff" />
			<path
   class="st1"
   d="m 1105.41,559.97 c 0,-18.59 13.63,-32.23 32.97,-32.23 19.34,0 32.97,13.63 32.97,32.23 0,18.59 -13.63,32.23 -32.97,32.23 -19.34,0 -32.97,-13.63 -32.97,-32.23 z m 50.95,0 c 0,-10.78 -7.19,-18.47 -17.97,-18.47 -10.78,0 -18.1,7.68 -18.1,18.47 0,10.78 7.31,18.47 18.1,18.47 10.79,0 17.97,-7.68 17.97,-18.47 z"
   id="path16"
   inkscape:connector-curvature="0"
   style="fill:#00a0ff" />
			<path
   class="st1"
   d="m 1175.45,529.36 h 16.11 l 16.98,47.72 16.98,-47.72 h 15.74 l -24.05,61.23 h -17.72 z"
   id="path18"
   inkscape:connector-curvature="0"
   style="fill:#00a0ff" />
		</g>
	</g>
	<g
   id="g30">
		<path
   class="st2"
   d="m 742.29,485.84 h -21.74 -8.11 -9.16 v 16.21 h 9.16 v 27.26 h -9.16 v 16.21 h 9.16 v 29.84 l -17.11,-17.11 c -21.89,-21.89 -21.89,-57.51 0,-79.4 10.6,-10.6 24.7,-16.44 39.7,-16.44 15,0 29.1,5.84 39.7,16.44 9.33,9.33 14.96,21.36 16.19,34.33 h 16.22 c -1.23,-16.7 -8.2,-33.05 -20.94,-45.79 -28.21,-28.21 -74.12,-28.21 -102.33,0 -28.21,28.21 -28.21,74.12 0,102.33 l 44.79,44.79 v -19.57 -3.36 -46.06 h 13.63 c 16.46,0 29.84,-13.39 29.84,-29.84 0.01,-16.45 -13.38,-29.84 -29.84,-29.84 z m 0,43.48 h -13.63 v -27.26 h 13.63 c 7.52,0 13.63,6.11 13.63,13.63 0,7.51 -6.11,13.63 -13.63,13.63 z"
   id="path24"
   inkscape:connector-curvature="0"
   style="fill:#ffffff" />
		<path
   class="st2"
   d="m 805.92,527.75 c -19.46,0 -33.09,13.39 -33.09,32.85 0,20.95 15.62,31.61 30.49,31.61 9.67,0 17.97,-4.59 21.69,-13.63 v 12.02 h 13.51 v -30.12 c 0,-19.72 -13.39,-32.73 -32.6,-32.73 z m -0.13,50.69 c -10.78,0 -18.1,-7.68 -18.1,-18.47 0,-10.78 7.31,-18.47 18.1,-18.47 10.78,0 17.97,7.68 17.97,18.47 0.01,10.79 -7.18,18.47 -17.97,18.47 z"
   id="path26"
   inkscape:connector-curvature="0"
   style="fill:#ffffff" />
		<path
   class="st2"
   d="m 897.64,529.36 v 31.11 c 0,11.4 -6.45,17.23 -15.49,17.23 -9.3,0 -15.49,-5.58 -15.49,-17.23 V 529.36 H 851.9 v 31.11 c 0,21.81 13.39,30.99 27.52,30.99 8.06,0 14.5,-3.59 18.22,-10.29 v 7.68 c 0,11.9 -5.7,16.73 -15.74,16.73 -7.44,0 -12.27,-2.6 -14.75,-8.3 H 852.4 c 3.47,14.5 15.25,21.07 29.5,21.07 16.98,0 30.49,-8.55 30.49,-29.87 v -59.12 z"
   id="path28"
   inkscape:connector-curvature="0"
   style="fill:#ffffff" />
	</g>
</g>
</svg>